<?xml version="1.0" standalone="no"?>
<!DOCTYPE svg PUBLIC "-//W3C//DTD SVG 20010904//EN"
 "http://www.w3.org/TR/2001/REC-SVG-20010904/DTD/svg10.dtd">
<svg version="1.0" xmlns="http://www.w3.org/2000/svg"
 width="700.000000pt" height="700.000000pt" viewBox="0 0 700.000000 700.000000"
 preserveAspectRatio="xMidYMid meet">
<metadata>
Created by potrace 1.14, written by Peter Selinger 2001-2017
</metadata>
<g transform="translate(0.000000,700.000000) scale(0.100000,-0.100000)"
fill="#000000" stroke="none">
<path d="M0 3500 l0 -3500 3500 0 3500 0 0 3500 0 3500 -3500 0 -3500 0 0
-3500z m3742 3322 c182 -49 316 -123 444 -244 152 -145 242 -296 290 -487 62
-243 34 -486 -84 -715 -131 -255 -362 -437 -647 -512 -86 -23 -121 -26 -245
-26 -170 0 -281 23 -424 90 -286 135 -492 389 -562 697 -27 118 -25 331 4 448
71 285 253 521 505 657 89 48 164 75 277 101 114 25 329 21 442 -9z m2348
-2345 c184 -48 325 -130 461 -266 140 -141 224 -290 272 -481 30 -121 30 -339
0 -460 -48 -191 -132 -340 -272 -481 -137 -137 -290 -224 -481 -272 -122 -30
-339 -30 -464 1 -180 45 -329 127 -466 259 -136 129 -228 286 -278 473 -22 83
-25 115 -25 250 0 135 3 167 25 250 50 187 142 344 278 473 156 150 315 231
534 273 106 20 297 11 416 -19z m-4832 -2307 c241 -27 454 -129 617 -295 379
-385 390 -998 23 -1390 -197 -211 -415 -311 -703 -322 -116 -4 -157 -2 -236
15 -384 79 -681 364 -781 747 -29 112 -35 292 -14 413 76 437 438 780 877 831
104 12 123 12 217 1z m2347 0 c582 -66 987 -599 889 -1171 -67 -393 -353 -705
-744 -811 -73 -19 -109 -23 -250 -23 -141 0 -177 4 -250 23 -391 106 -677 418
-744 811 -44 259 14 520 165 742 156 230 430 395 710 428 105 12 123 12 224 1z
m2340 0 c123 -14 223 -43 332 -95 625 -303 765 -1126 276 -1620 -122 -123
-289 -220 -463 -267 -72 -19 -110 -23 -250 -23 -193 0 -272 17 -429 90 -636
302 -779 1131 -280 1627 161 160 370 261 590 287 105 12 123 12 224 1z"/>
</g>
</svg>
